<svg width="390" height="251" viewBox="0 0 390 251" fill="none" xmlns="http://www.w3.org/2000/svg">
<g filter="url(#filter0_d_10_800)">
<path d="M83.1454 184.938C73.7909 179.549 76.7512 156.957 89.7593 134.478C102.767 111.999 120.896 98.1441 130.251 103.533C139.605 108.922 136.645 131.514 123.637 153.993C110.629 176.472 92.4999 190.327 83.1454 184.938Z" fill="#0C113E"/>
<path d="M337.411 251.831C341.6 245.457 340.248 236.029 334.44 231.098C329.512 226.911 322.017 225.709 318.696 220.153C315.264 214.411 317.685 206.008 313.029 201.212C309.951 198.04 304.906 197.772 301.353 195.144C294.914 190.38 295.746 180.156 290.649 173.969C285.651 167.901 275.703 166.631 272.554 159.42C271.405 156.789 271.42 153.81 270.741 151.02C269.588 146.269 266.302 142.082 261.971 139.841C259.437 138.531 256.496 137.8 254.534 135.723C250.558 131.518 252.533 124.057 248.902 119.548C245.434 115.242 237.901 114.997 235.873 109.85C235.112 107.92 235.366 105.702 234.599 103.773C233.225 100.317 229.217 98.9386 225.862 97.351C223.347 96.1615 221.398 92.2167 221.049 88.8191C220.73 85.723 218.715 83.0541 215.763 82.0928C212.877 81.152 209.69 80.4043 208.157 78.5431C206.606 76.6599 206.205 74.0159 204.618 72.1621C202.249 69.3966 197.343 69.4698 195.056 72.3054C192.772 69.4698 187.865 69.3951 185.495 72.1621C183.908 74.0145 183.508 76.6585 181.956 78.5431C180.423 80.4043 177.236 81.152 174.35 82.0928C171.4 83.0541 169.383 85.723 169.064 88.8191C168.713 92.2152 166.766 96.16 164.251 97.351C160.896 98.9386 156.887 100.317 155.513 103.773C154.747 105.702 155 107.918 154.24 109.85C152.212 114.999 144.679 115.242 141.211 119.548C137.581 124.057 139.557 131.518 135.581 135.723C133.618 137.798 130.677 138.53 128.143 139.841C123.811 142.081 120.527 146.267 119.372 151.02C118.695 153.81 118.708 156.791 117.559 159.42C114.408 166.629 104.462 167.901 99.4641 173.969C94.367 180.156 95.1994 190.381 88.7598 195.144C85.2074 197.772 80.163 198.038 77.0839 201.212C72.4294 206.008 74.849 214.413 71.4167 220.153C68.0958 225.709 60.6011 226.911 55.6725 231.098C49.8646 236.03 48.5148 245.457 52.7033 251.831H337.41H337.411Z" fill="#0C113E"/>
<path d="M180.809 79.0742C177.193 79.4473 171.306 76.1493 168.53 71.7173C168.026 70.911 167.6 70.0229 167.636 69.0806C167.673 68.1383 168.278 67.1389 169.279 66.8141C170.444 66.4366 171.658 67.0511 172.582 67.7301C176.503 70.6096 178.716 74.9129 180.81 79.0742H180.809Z" fill="#0C113E"/>
<path d="M180.809 78.4041C176.425 78.6748 170.8 74.9817 168.93 71.0691C168.111 69.3557 167.674 66.6151 171.656 67.9144C172.347 68.1397 172.986 68.883 173.497 69.3483C174.592 70.3433 175.544 71.4744 176.402 72.6771C177.902 74.7827 179.069 77.1106 180.23 79.4122C180.618 80.1819 181.774 79.5044 181.387 78.7362C179.519 75.0314 177.557 71.2388 174.445 68.4031C172.521 66.6487 168.552 64.3969 167.186 68.0636C166.008 71.2271 169.816 74.73 172.012 76.4171C174.467 78.3031 177.624 79.939 180.809 79.7429C181.666 79.6902 181.672 78.3514 180.809 78.4055V78.4041Z" fill="#0C113E"/>
<path d="M209.307 79.0742C212.923 79.4473 218.81 76.1493 221.585 71.7173C222.09 70.911 222.516 70.0229 222.481 69.0806C222.444 68.1383 221.839 67.1389 220.838 66.8141C219.673 66.4366 218.459 67.0511 217.535 67.7301C213.616 70.6096 211.401 74.9129 209.307 79.0742Z" fill="#0C113E"/>
<path d="M209.307 79.7429C212.465 79.9375 215.593 78.3324 218.036 76.4697C220.256 74.7768 224.116 71.252 222.931 68.0636C221.632 64.5798 217.867 66.4702 215.936 68.1617C212.677 71.0164 210.65 74.9304 208.73 78.7362C208.343 79.5029 209.499 80.1819 209.888 79.4122C211.05 77.1077 212.222 74.7914 213.716 72.6771C214.495 71.5724 215.367 70.5174 216.356 69.5898C216.861 69.1171 217.772 68.087 218.462 67.9159C219.557 68.1748 220.652 68.4338 221.748 68.6928C221.823 69.581 221.637 70.374 221.188 71.0705C219.194 74.9612 213.783 78.6821 209.31 78.4055C208.448 78.3529 208.451 79.6902 209.31 79.7429H209.307Z" fill="#0C113E"/>
<path d="M273.654 249.693H122.228L130.372 230.763C132.359 226.143 136.608 222.892 141.591 222.153C178.884 216.616 216.997 216.616 254.289 222.153C259.272 222.893 263.522 226.145 265.508 230.763L273.653 249.693H273.654Z" fill="#FFA991"/>
<path d="M262.358 219.518C219.822 211.182 176.059 211.182 133.523 219.518L162.985 140.824L167.642 128.377H228.241L232.902 140.829L262.358 219.518Z" fill="#FFA991"/>
<path d="M280.654 223.64C274.584 222.092 268.487 220.719 262.358 219.519C219.822 211.183 176.059 211.183 133.523 219.519C127.396 220.719 121.293 222.093 115.223 223.64L162.983 140.826L170.157 128.378L173.778 122.104H222.103L225.723 128.378L232.901 140.83L280.652 223.64H280.654Z" fill="white"/>
<path d="M320.424 177.325C329.274 171.145 324.356 148.897 309.44 127.629C294.524 106.363 275.258 94.132 266.407 100.313C257.557 106.492 262.475 128.741 277.392 150.009C292.308 171.275 311.574 183.506 320.424 177.327V177.325Z" fill="#0C113E"/>
<path d="M200.41 144.419C211.138 144.865 223.653 140.852 227.676 130.593C229.429 126.077 230.461 121.226 230.859 116.244C218.298 119.848 205.901 122.122 197.938 123.37V122.101C197.938 122.101 188.205 121.555 175.412 119.24C174.341 133.005 186.202 143.584 200.409 144.418L200.41 144.419Z" fill="#FFA991"/>
<path d="M313.564 179.04C309.556 176.506 306.244 175.053 302.278 172.04C297.064 168.085 290.718 161.438 280.156 146.089C266.084 125.642 264.505 111.695 264.876 105.015C265.043 102.01 265.604 100.475 265.604 100.475C256.988 107.378 243.837 112.521 230.861 116.245C230.462 121.226 229.429 126.078 227.678 130.595C223.655 140.853 211.139 144.865 200.412 144.421C186.203 143.587 174.343 133.008 175.415 119.243C161.384 116.705 143.672 112.04 131.067 103.627C131.067 103.627 131.76 105.107 132.189 108.087C133.142 114.709 132.784 128.74 120.546 150.329C111.36 166.535 105.616 173.708 100.767 178.101C97.0797 181.445 93.9053 183.179 90.1331 186.052L180.574 180.676L180.532 180.951L313.567 179.04H313.564Z" fill="white"/>
<path d="M235.836 39.5708C235.836 39.5708 235.369 46.9585 257.642 66.1498C279.915 85.3411 290.337 94.9324 290.337 94.9324C290.337 94.9324 283.038 96.6779 278.589 99.1976C271.579 103.17 268.146 111.418 270.382 119.145C272.416 126.173 274.57 135.087 281.929 145.779C286.605 152.575 291.088 158.393 295.089 161.572C303.673 168.391 310.414 169.735 317.783 165.441C339.457 152.812 375.431 127.424 366.728 89.7702C353.753 33.6507 287.627 1.42518 272.272 0.948178C256.917 0.475565 250.18 6.6488 250.18 6.6488C250.18 6.6488 245.888 -0.498924 239.946 7.84423C239.946 7.84423 235.127 0.304371 232.294 10.3902C224.619 37.7169 230.412 48.0427 235.836 39.5708Z" fill="#FFA991"/>
<path d="M232.451 7.91007C230.657 10.5892 230.174 14.5881 229.557 17.6623C228.566 22.605 227.808 27.6823 227.751 32.7303C227.717 35.7226 227.764 41.6105 231.28 42.8366C235.227 44.212 236.125 38.8845 237.188 36.6883C236.779 36.6356 236.37 36.5815 235.962 36.5288C236.348 38.8479 238.033 41.8577 240.734 41.9075C243.848 41.9646 244.644 38.45 244.883 36.0357H243.542C243.64 38.2832 244.367 40.8818 246.736 41.6968C248.689 42.3684 250.769 41.4495 251.224 39.3923C251.951 36.1162 251.863 32.464 252.256 29.1177C252.671 25.584 253.232 22.0826 254.05 18.6178H252.757C256.314 28.4095 265.461 36.3473 274.968 40.0258C280.487 42.1606 286.391 42.999 292.289 42.9903C293.152 42.9903 293.153 41.6514 292.289 41.6529C280.931 41.6705 269.907 38.0593 261.858 29.8581C258.677 26.6156 255.621 22.586 254.05 18.2637C253.839 17.6828 252.92 17.5745 252.757 18.2637C251.828 22.1938 251.239 26.1781 250.794 30.1887C250.533 32.5269 250.282 34.871 250.08 37.215C250.037 37.714 250.071 38.3285 249.939 38.8099C249.552 40.219 248.062 40.974 246.743 40.2482C245.288 39.4479 244.946 37.5194 244.882 36.0371C244.844 35.1636 243.624 35.19 243.541 36.0371C243.442 37.0292 243.36 38.1705 242.883 39.0645C242.295 40.1634 240.665 40.8452 239.549 40.1634C238.187 39.3323 237.504 37.673 237.255 36.1732C237.163 35.6157 236.27 35.5148 236.03 36.0137C235.266 37.594 235.209 39.8385 233.798 40.9725C232.36 42.1284 231.078 41.5563 230.256 39.979C228.541 36.6853 229 32.2767 229.297 28.7211C229.646 24.5496 230.311 20.397 231.21 16.3088C231.749 13.855 232.178 10.7238 233.61 8.58607C234.091 7.86764 232.93 7.19749 232.452 7.91007H232.451Z" fill="#0C113E"/>
<path d="M250.065 4.86223C245.356 15.1222 243.145 26.5615 243.746 37.8339C243.791 38.6899 245.134 38.6958 245.087 37.8339C244.499 26.8058 246.612 15.5816 251.223 5.53676C251.579 4.7598 250.424 4.07942 250.065 4.86077V4.86223Z" fill="#0C113E"/>
<path d="M240.721 5.82941C236.864 15.507 235.473 25.9806 235.936 36.3503C235.974 37.2077 237.315 37.2121 237.277 36.3503C236.817 26.0845 238.196 15.7631 242.014 6.18497C242.332 5.3846 241.036 5.03782 240.721 5.82941Z" fill="#0C113E"/>
<path d="M304.252 54.8334C303.351 53.458 302.312 52.1865 301.135 51.0335C300.518 50.4292 299.57 51.3759 300.186 51.9802C301.283 53.0542 302.253 54.2262 303.094 55.5094C303.565 56.2278 304.727 55.5577 304.252 54.8334Z" fill="#0C113E"/>
<path d="M301.678 57.3998C300.483 56.0639 299.285 54.7281 298.088 53.3922C297.512 52.7483 296.567 53.698 297.14 54.3374C298.336 55.6733 299.533 57.0092 300.73 58.3451C301.306 58.9889 302.251 58.0393 301.678 57.3984V57.3998Z" fill="#0C113E"/>
<path d="M249.952 37.2779C248.12 37.2574 246.289 37.237 244.457 37.2179C243.593 37.2092 243.593 38.5465 244.457 38.5553C246.289 38.5758 248.12 38.5948 249.952 38.6153C250.816 38.6241 250.816 37.2867 249.952 37.2779Z" fill="#0C113E"/>
<path d="M243.564 37.5559C241.271 37.3438 238.983 37.3189 236.686 37.4799C235.83 37.5399 235.823 38.8787 236.686 38.8172C238.984 38.6563 241.272 38.6812 243.564 38.8933C244.423 38.9723 244.419 37.635 243.564 37.5559Z" fill="#0C113E"/>
<path d="M234.658 37.8413C232.832 37.9115 231.006 37.9817 229.18 38.0505C228.32 38.0842 228.315 39.4215 229.18 39.3879C231.006 39.3176 232.832 39.2474 234.658 39.1772C235.518 39.1435 235.523 37.8061 234.658 37.8398V37.8413Z" fill="#0C113E"/>
<path d="M180.274 19.0553L175.452 24.295C174.47 20.6809 172.999 15.2612 172.018 11.6471L172.924 30.9803L177.993 26.9756L183.209 40.0405L180.274 19.0553Z" fill="#FECD43"/>
<path d="M200.828 20.5946L194.359 23.5853C194.844 19.8717 195.571 14.3043 196.056 10.5907L189.451 28.7885L195.673 27.0326L195.461 41.094L200.828 20.5931V20.5946Z" fill="#FECD43"/>
<path d="M219.886 22.4674L212.801 23.2605C214.44 19.8922 216.897 14.8412 218.536 11.4715L206.493 26.6449L212.952 26.9463L208.287 40.216L219.886 22.4674Z" fill="#FECD43"/>
<path d="M215.678 125.993L197.236 79.3025C197.236 79.3025 182.059 79.0288 175.962 101.179L186.921 100.368L189.504 131.511L215.677 125.993H215.678Z" fill="#FFA991"/>
<path d="M202.037 90.8925C199.907 92.9688 199.708 96.2112 201.591 98.1324C203.475 100.054 206.727 99.9277 208.856 97.8514C210.985 95.7752 211.185 92.5327 209.301 90.6115C207.418 88.6904 204.166 88.8162 202.037 90.8925Z" fill="#FFA991"/>
<path d="M178.792 91.8816C178.343 91.5743 177.8 91.2919 177.398 90.9276C177.027 90.591 177.236 90.5852 177.599 90.3657C177.853 90.2121 178.106 90.0584 178.361 89.9048C179.377 89.2888 180.392 88.6742 181.406 88.0582C181.959 87.7232 181.453 86.8555 180.899 87.192C180.087 87.6837 179.276 88.1768 178.462 88.6684C177.782 89.0795 176.797 89.4673 176.268 90.0643C175.245 91.2173 177.58 92.2664 178.283 92.7493C178.818 93.1165 179.322 92.2459 178.79 91.883L178.792 91.8816Z" fill="#0C113E"/>
<path d="M186.155 100.651L192.096 100.086L189.504 131.511L186.155 100.651Z" fill="#0C113E"/>
<path d="M205.107 95.0304C205.956 94.6807 206.804 94.3324 207.654 93.9827C208.245 93.7399 207.985 92.7683 207.386 93.0156C206.537 93.3653 205.689 93.7135 204.84 94.0632C204.25 94.3061 204.509 95.2777 205.107 95.0304Z" fill="#0C113E"/>
<path d="M155.399 38.646C155.399 38.646 156.507 45.965 135.991 67.0145C115.475 88.0656 105.927 98.5231 105.927 98.5231C105.927 98.5231 113.368 100.017 118.018 102.142C125.347 105.491 129.487 113.41 127.932 121.302C126.518 128.479 124.708 137.702 118.309 148.99C114.241 156.167 113.038 159.243 106.569 165.748C100.559 171.793 92.4588 175.171 84.7427 171.531C62.0504 160.829 23.9846 138.269 29.3763 100.002C37.4133 42.9698 100.483 5.13293 115.739 3.32735C130.995 1.52615 138.245 7.09216 138.245 7.09216C138.245 7.09216 141.897 -0.400885 148.543 7.39504C148.543 7.39504 152.688 -0.534035 156.388 9.26793C166.415 35.825 161.543 46.6146 155.401 38.6446L155.399 38.646Z" fill="#FFA991"/>
<path d="M154.993 7.67158C156.608 9.68201 157.293 12.8425 158.039 15.248C159.271 19.225 160.287 23.2868 160.992 27.3896C161.592 30.8867 162.355 35.089 161.003 38.507C160.36 40.1341 159.152 40.9184 157.599 39.8898C156.064 38.8728 155.839 36.6912 154.93 35.168C154.573 34.5681 153.73 34.8651 153.682 35.506C153.573 36.9063 152.886 39.3118 151.345 39.8224C148.577 40.7413 147.772 37.6657 147.397 35.6728C147.258 34.9324 146.048 35.1007 146.08 35.8513C146.137 37.1477 146.049 38.4953 145.246 39.5678C144.764 40.2117 143.423 41.1086 142.52 40.6448C141.79 40.2702 141.358 39.186 141.16 38.4631C140.515 36.1191 140.278 33.5834 139.806 31.1925C138.99 27.0516 138.034 22.9518 136.708 18.9411C136.507 18.3324 135.592 18.2783 135.415 18.9411C134.228 23.3834 131.564 27.6735 128.672 31.1837C121.38 40.0419 110.714 44.6466 99.4025 45.6123C98.5496 45.6855 98.5408 47.0243 99.4025 46.9497C114.993 45.6182 129.166 37.2062 135.493 22.586C135.954 21.5178 136.406 20.4219 136.708 19.2952H135.415C136.478 22.507 137.313 25.7757 138.012 29.084C138.752 32.5825 139.048 36.3254 140.04 39.7464C140.631 41.7817 142.779 42.5308 144.676 41.7261C146.978 40.7486 147.522 38.0988 147.422 35.8499C146.983 35.9099 146.544 35.9684 146.105 36.0284C146.55 38.3973 147.749 41.8446 150.847 41.3778C153.531 40.974 154.838 37.8837 155.022 35.506C154.606 35.6187 154.19 35.7313 153.772 35.844C155.037 37.9671 156.315 43.0795 160.127 41.549C163.613 40.1487 163.152 34.1335 162.862 31.1896C162.365 26.1606 161.185 21.1754 159.766 16.3323C158.859 13.2391 158.014 9.30305 155.943 6.72635C155.404 6.05475 154.46 7.00729 154.995 7.67158H154.993Z" fill="#0C113E"/>
<path d="M137.076 6.02694C142.542 15.6328 145.655 26.62 146.03 37.6598C146.059 38.5187 147.4 38.5231 147.371 37.6598C146.988 26.3815 143.818 15.1646 138.233 5.35094C137.807 4.60179 136.648 5.27486 137.076 6.02694Z" fill="#0C113E"/>
<path d="M146.386 6.02694C150.994 15.1749 153.248 25.309 153.68 35.5045C153.717 36.362 155.058 36.3664 155.021 35.5045C154.578 25.0646 152.26 14.7154 147.544 5.35094C147.157 4.5813 145.999 5.25876 146.386 6.02694Z" fill="#0C113E"/>
<path d="M89.7564 60.4067C90.4818 59.0562 91.3347 57.7964 92.3328 56.6302C92.8911 55.9791 91.9459 55.028 91.3846 55.6835C90.3133 56.9346 89.3782 58.2792 88.5986 59.7307C88.1912 60.4887 89.3475 61.1661 89.7564 60.4067Z" fill="#0C113E"/>
<path d="M92.4515 62.8839C93.5272 61.45 94.6029 60.0146 95.6786 58.5807C96.1959 57.8915 95.0323 57.2228 94.5208 57.9047C93.4451 59.3386 92.3694 60.774 91.2937 62.2079C90.7764 62.8971 91.94 63.5658 92.4515 62.8839Z" fill="#0C113E"/>
<path d="M141.195 38.9211C143.018 38.7426 144.841 38.5641 146.664 38.3841C147.516 38.3007 147.523 36.9619 146.664 37.0468C144.841 37.2253 143.018 37.4038 141.195 37.5838C140.344 37.6672 140.335 39.006 141.195 38.9211Z" fill="#0C113E"/>
<path d="M147.761 38.6197C149.969 38.2203 152.185 38.0096 154.429 37.9715C155.291 37.9569 155.294 36.6195 154.429 36.6342C152.066 36.6737 149.729 36.9092 147.405 37.3292C146.556 37.4828 146.917 38.7719 147.761 38.6197Z" fill="#0C113E"/>
<path d="M156.481 38.1559C158.305 38.0681 160.131 37.9788 161.957 37.8896C162.816 37.8471 162.822 36.5098 161.957 36.5522C160.133 36.64 158.307 36.7292 156.481 36.8185C155.622 36.8609 155.616 38.1983 156.481 38.1559Z" fill="#0C113E"/>
<path d="M137.719 50.7379C122.455 55.6689 109.161 64.4759 100.405 78.0705C92.8589 89.7848 89.1013 103.36 84.8102 116.472C80.4077 129.922 75.1127 143.133 65.1999 153.548C53.9768 165.339 39.7011 173.306 23.9114 177.198C2.33141 182.518 -20.5338 180.998 -42.3161 177.825C-44.0044 177.58 -44.7327 180.158 -43.0298 180.407C-7.92147 185.519 31.6084 186.1 60.2288 161.922C66.0162 157.033 71.1968 151.416 75.2696 145.021C79.0111 139.146 81.8439 132.746 84.2665 126.233C89.1555 113.083 92.3167 99.2429 98.6228 86.6448C102.193 79.5132 106.792 72.9405 112.708 67.5471C120.049 60.8559 129.024 56.3595 138.43 53.3204C140.065 52.7922 139.365 50.2068 137.717 50.7394L137.719 50.7379Z" fill="#0C113E"/>
<path d="M251.567 53.3175C267.262 58.389 280.515 67.7154 288.896 82.0547C296.011 94.23 299.442 108.038 303.969 121.273C308.643 134.938 314.798 147.629 325.269 157.832C336.835 169.102 351.341 176.577 367.056 180.175C388.656 185.12 411.293 183.569 433.028 180.404C434.73 180.156 434.006 177.577 432.315 177.823C396.896 182.98 356.686 183.308 328.778 157.471C323.355 152.451 318.714 146.814 315.072 140.382C311.597 134.243 309 127.67 306.71 121.014C302.232 108.006 298.837 94.4802 292.148 82.3547C288.314 75.4045 283.361 69.063 277.248 63.9623C269.928 57.8534 261.321 53.657 252.28 50.7364C250.634 50.2053 249.929 52.7878 251.567 53.3175Z" fill="#0C113E"/>
<path d="M251.264 66.8214H231.041C228.081 66.8214 225.677 64.4217 225.677 61.4661V46.9877C225.677 44.0321 228.081 41.6324 231.041 41.6324H251.264C254.224 41.6324 256.628 44.0321 256.628 46.9877V61.4661C256.628 64.4217 254.224 66.8214 251.264 66.8214Z" fill="#E4202E"/>
<path d="M161.821 47.0741H173.39C174.332 47.0741 175.097 47.8379 175.097 48.7787V48.9587C175.097 49.8995 174.332 50.6633 173.39 50.6633H161.823C160.88 50.6633 160.115 49.8995 160.115 48.9587V48.7787C160.115 47.8379 160.88 47.0741 161.823 47.0741H161.821Z" fill="#0C113E"/>
<path d="M161.821 57.2096H173.39C174.332 57.2096 175.097 57.9734 175.097 58.9143V59.0957C175.097 60.0365 174.332 60.8003 173.39 60.8003H161.821C160.879 60.8003 160.114 60.0365 160.114 59.0957V58.9143C160.114 57.9734 160.879 57.2096 161.821 57.2096Z" fill="#0C113E"/>
<path d="M235.344 53.8662C235.344 60.9496 231.617 66.6926 227.018 66.6926C222.419 66.6926 218.693 60.9496 218.693 53.8662C218.693 46.7829 222.419 41.0413 227.018 41.0413C231.617 41.0413 235.344 46.7829 235.344 53.8662Z" fill="#0C113E"/>
<path d="M226.368 56.7912H226.596C227.758 56.7912 228.702 57.7335 228.702 58.8938V59.1162C228.702 60.2765 227.758 61.2188 226.596 61.2188H226.368C225.205 61.2188 224.262 60.2765 224.262 59.1162V58.8938C224.262 57.7335 225.205 56.7912 226.368 56.7912Z" fill="white"/>
<path d="M226.368 46.3249H226.596C227.758 46.3249 228.702 47.2672 228.702 48.4275V48.6499C228.702 49.8102 227.758 50.7525 226.596 50.7525H226.368C225.205 50.7525 224.262 49.8102 224.262 48.6499V48.4275C224.262 47.2672 225.205 46.3249 226.368 46.3249Z" fill="white"/>
<path d="M158.959 41.6339H138.736C135.774 41.6339 133.372 44.0315 133.372 46.9892V61.4675C133.372 64.4252 135.774 66.8228 138.736 66.8228H158.959C161.921 66.8228 164.323 64.4252 164.323 61.4675V46.9892C164.323 44.0315 161.921 41.6339 158.959 41.6339Z" fill="#E4202E"/>
<path d="M108.345 203.2C109.151 200.668 110.475 197.945 113.171 197.029C113.781 196.821 113.518 195.852 112.904 196.06C109.844 197.1 108.3 200.031 107.376 202.933C107.18 203.55 108.15 203.813 108.347 203.2H108.345Z" fill="#7DCCCA"/>
<path d="M79.5592 257.046C77.8006 253.315 77.7097 249.07 79.0771 245.196C80.5968 240.891 83.6422 238.084 87.6358 236.058C90.9347 234.384 93.0978 232.368 94.1369 228.755C95.2653 224.834 95.1056 220.375 97.7802 217.049C98.1818 216.551 97.4739 215.836 97.0694 216.34C94.515 219.515 94.3508 223.508 93.4627 227.324C92.8208 230.085 91.7114 232.417 89.2742 234.021C87.394 235.258 85.244 235.977 83.4488 237.365C77.4313 242.018 75.4792 250.74 78.6887 257.551C78.9642 258.135 79.8303 257.627 79.5578 257.045L79.5592 257.046Z" fill="#7DCCCA"/>
<path d="M102.951 249.374C99.7821 245.434 104.095 241.147 106.6 238.364C108.609 236.133 110.283 233.654 110.073 230.536C110.031 229.895 109.024 229.891 109.068 230.536C109.414 235.68 104.385 238.314 102.083 242.288C100.648 244.765 100.383 247.775 102.24 250.084C102.644 250.587 103.352 249.873 102.951 249.374Z" fill="#7DCCCA"/>
<path d="M316.8 242.344C319.184 247.063 318.588 252.349 317.692 257.371C317.579 258.003 318.548 258.274 318.662 257.637C319.611 252.326 320.184 246.815 317.669 241.837C317.377 241.261 316.51 241.769 316.8 242.344Z" fill="#7DCCCA"/>
<path d="M278.56 191.885C278.74 196.77 280.755 201.449 284.357 204.803C288.349 208.519 294.103 209.628 297.754 213.766C298.182 214.252 298.891 213.539 298.465 213.056C295.375 209.554 290.86 208.24 287.082 205.685C282.487 202.578 279.767 197.381 279.564 191.884C279.54 191.24 278.533 191.237 278.558 191.884L278.56 191.885Z" fill="#7DCCCA"/>
<path d="M286.811 230.602C287.067 234.311 289.89 236.645 292.862 238.477C294.968 239.774 297.173 240.971 298.668 243.002C300.313 245.239 300.877 247.904 300.532 250.633C300.452 251.272 301.459 251.266 301.538 250.633C302.018 246.814 300.676 243.048 297.726 240.524C294.255 237.553 288.185 235.952 287.816 230.602C287.772 229.961 286.765 229.956 286.811 230.602Z" fill="#7DCCCA"/>
<path d="M165.145 110.951C165.567 108.578 166.883 106.553 168.917 105.244C169.459 104.895 168.955 104.026 168.41 104.377C166.166 105.821 164.642 108.057 164.175 110.685C164.062 111.317 165.032 111.588 165.145 110.951Z" fill="#7DCCCA"/>
<path d="M190.081 90.8339C190.604 89.9385 191.067 89.0152 191.472 88.0597C191.721 87.4715 190.855 86.9594 190.603 87.5535C190.198 88.5089 189.735 89.4322 189.212 90.3277C188.885 90.8866 189.754 91.3914 190.081 90.8339Z" fill="#0C113E"/>
<path d="M192.333 83.3526C193.427 83.6467 194.341 84.3037 194.951 85.2592C195.298 85.802 196.169 85.3001 195.82 84.7529C195.071 83.5809 193.949 82.7469 192.602 82.3855C191.976 82.2172 191.709 83.1858 192.335 83.3526H192.333Z" fill="#0C113E"/>
<path d="M185.591 85.7976C183.291 87.5227 181.075 89.3473 178.947 91.2802C178.656 91.5451 178.826 92.0103 179.169 92.1186C180.08 92.4054 180.99 92.6922 181.902 92.979C182.52 93.1736 182.786 92.205 182.169 92.0118C181.257 91.725 180.347 91.4382 179.435 91.1515C179.509 91.4309 179.583 91.7104 179.657 91.9899C181.722 90.1155 183.866 88.3377 186.096 86.6638C186.608 86.2805 186.106 85.4084 185.589 85.7976H185.591Z" fill="#0C113E"/>
<path d="M181.908 96.2522C181.812 96.8009 182.138 97.373 182.736 97.4227C183.254 97.4666 183.687 97.0423 183.703 96.5287C183.718 96.0341 183.334 95.5864 182.822 95.6127C182.312 95.6391 181.872 96.1219 181.919 96.6311C182.023 97.7505 183.786 97.569 183.841 96.5068C183.867 95.9844 183.468 95.522 182.967 95.4079C182.432 95.2864 181.922 95.6083 181.708 96.0927C181.233 97.1725 182.429 98.2758 183.48 97.7651C184.594 97.2252 184.384 95.5557 183.193 95.266C182.097 94.9997 181.178 96.0619 181.484 97.1067C181.783 98.1221 183.043 98.425 183.8 97.6905C184.692 96.8228 183.912 95.2981 182.693 95.4328C181.502 95.5644 181.254 97.2164 182.217 97.8192C182.766 98.1631 183.272 97.2954 182.724 96.953C182.572 96.8579 182.567 96.5228 182.744 96.4394C182.964 96.337 183.262 96.637 183.184 96.8535C183.104 97.0803 182.752 97.1857 182.57 97.0335C182.356 96.855 182.38 96.4702 182.599 96.3151C182.888 96.1102 183.41 96.3868 183.18 96.7438C183.021 96.9881 182.582 96.9091 182.598 96.5916C182.607 96.4292 182.698 96.416 182.785 96.4043C182.793 96.4043 182.878 96.4775 182.841 96.4658C182.885 96.3824 182.898 96.3546 182.878 96.3868C182.875 96.3926 182.871 96.3955 182.865 96.3985C182.897 96.438 182.939 96.6019 182.887 96.618C182.851 96.6282 182.664 96.5638 182.703 96.4716C182.699 96.4819 182.909 96.3399 182.878 96.5228C182.988 95.8907 182.019 95.62 181.908 96.2565V96.2522Z" fill="#0C113E"/>
<path d="M105.926 98.5245L90.8379 116.997L111.304 99.9467L105.926 98.5245Z" fill="#0C113E"/>
<path d="M290.337 94.9324L309.113 111.098L284.474 96.6677L290.337 94.9324Z" fill="#0C113E"/>
<path d="M37.214 113.505C35.8906 118.856 36.5442 124.565 39.2262 129.411C40.0645 130.926 41.7044 134.159 43.869 133.799C45.5148 133.526 45.78 131.52 45.9559 130.195C46.3589 127.162 46.3003 124.066 45.8489 121.042C45.4503 118.374 44.9315 114.655 43.1201 112.504C40.5041 109.399 35.9727 112.17 36.959 115.9C37.1246 116.525 38.0948 116.258 37.9292 115.634C37.4587 113.859 38.4626 112.181 40.422 112.255C42.0649 112.318 42.7757 113.631 43.2842 114.984C43.8587 116.509 44.2808 118.104 44.5988 119.698C45.0165 121.789 45.2231 123.924 45.2187 126.056C45.2143 127.771 45.4093 130.201 44.6252 131.723C42.6907 135.482 38.5403 125.402 38.2194 124.18C37.3166 120.743 37.3342 117.211 38.1856 113.77C38.341 113.143 37.3708 112.876 37.2155 113.503L37.214 113.505Z" fill="white"/>
<path d="M356.693 103.545C351.625 103.733 350.86 109.392 350.138 113.297C349.776 115.255 348.693 118.104 350.12 119.874C351.002 120.969 352.642 121.239 353.941 120.872C357.785 119.78 360.344 114.331 360.848 110.739C361.219 108.094 360.073 101.338 355.88 103.938C355.332 104.278 355.836 105.147 356.387 104.805C357.344 105.097 358.299 105.39 359.256 105.682C359.481 106.101 359.639 106.538 359.731 106.999C359.906 107.746 359.977 108.546 359.963 109.313C359.941 110.58 359.671 111.864 359.236 113.053C358.345 115.479 356.388 119.154 353.674 119.905C353.328 119.944 352.981 119.985 352.634 120.025C351.899 119.248 351.165 118.471 350.431 117.692C350.276 117.163 350.698 115.786 350.819 115.126C351.036 113.955 351.247 112.783 351.468 111.613C352.033 108.638 352.96 104.687 356.693 104.55C357.338 104.527 357.341 103.523 356.693 103.546V103.545Z" fill="white"/>
<path d="M142.331 7.46381H145.07C145.718 7.46381 145.718 6.46005 145.07 6.46005H142.331C141.683 6.46005 141.683 7.46381 142.331 7.46381Z" fill="white"/>
<path d="M150.295 6.93705C151.397 7.41112 152.546 7.60573 153.74 7.44917C154.373 7.36576 154.381 6.36201 153.74 6.44541C152.733 6.5771 151.74 6.47467 150.802 6.07083C150.214 5.8177 149.701 6.68099 150.295 6.93705Z" fill="white"/>
<path d="M130.919 8.37536H135.028C135.676 8.37536 135.676 7.37161 135.028 7.37161H130.919C130.271 7.37161 130.271 8.37536 130.919 8.37536Z" fill="white"/>
<path d="M235.41 7.48723C236.37 7.27799 237.352 7.35554 238.259 7.74036C238.848 7.98911 239.361 7.12582 238.766 6.87415C237.594 6.37666 236.392 6.24936 235.143 6.52006C234.512 6.6576 234.778 7.62477 235.41 7.48723Z" fill="white"/>
<path d="M244.397 7.46381H248.049C248.696 7.46381 248.696 6.46005 248.049 6.46005H244.397C243.749 6.46005 243.749 7.46381 244.397 7.46381Z" fill="white"/>
<path d="M254.998 6.39128C256.371 6.10449 257.745 5.8177 259.118 5.53092C259.751 5.39923 259.483 4.43059 258.851 4.56374C257.478 4.85053 256.105 5.13732 254.731 5.4241C254.098 5.55579 254.367 6.52443 255 6.39128H254.998Z" fill="white"/>
<path d="M136.895 185.841C142.63 174.633 148.81 163.663 155.424 152.95C155.764 152.398 154.895 151.893 154.556 152.443C147.941 163.157 141.762 174.128 136.028 185.336C135.735 185.91 136.602 186.419 136.897 185.842L136.895 185.841Z" fill="#0C113E"/>
<path d="M258.913 183.984C253.19 174.403 247.723 164.674 242.516 154.804C242.214 154.231 241.347 154.738 241.649 155.31C246.854 165.181 252.322 174.909 258.045 184.492C258.376 185.046 259.245 184.542 258.913 183.986V183.984Z" fill="#0C113E"/>
<path d="M147.32 151.922C147.775 154.959 148.231 157.996 148.686 161.032C148.781 161.669 149.749 161.398 149.656 160.766C149.2 157.73 148.744 154.692 148.29 151.656C148.195 151.02 147.226 151.29 147.32 151.922Z" fill="#0C113E"/>
<path d="M246.873 161.065C247.737 158.014 248.601 154.964 249.464 151.914C249.64 151.292 248.67 151.026 248.494 151.647C247.631 154.698 246.766 157.749 245.903 160.798C245.727 161.42 246.697 161.686 246.873 161.065Z" fill="#0C113E"/>
<path d="M201.431 233.11C199.759 234.034 199.723 236.778 201.412 237.72C203.382 238.819 205.758 236.469 205.032 234.467C204.814 233.865 203.841 234.125 204.062 234.734C204.506 235.957 203.005 237.635 201.777 236.762C200.864 236.113 200.984 234.502 201.94 233.974C202.506 233.661 201.999 232.795 201.433 233.108L201.431 233.11Z" fill="#0C113E"/>
<path d="M184.846 143.354C176.579 138.808 171.532 129.783 171.983 120.377C172.014 119.732 171.008 119.734 170.978 120.377C170.509 130.119 175.779 139.515 184.339 144.22C184.906 144.532 185.415 143.666 184.846 143.354Z" fill="#0C113E"/>
<path d="M191.029 147.966C197.297 150.18 203.916 150.606 210.421 149.248C211.054 149.116 210.786 148.149 210.154 148.281C203.819 149.602 197.397 149.154 191.297 146.999C190.686 146.782 190.422 147.752 191.031 147.966H191.029Z" fill="#0C113E"/>
<path d="M234.007 118.099C233.601 128.734 228.043 138.689 219.185 144.621C218.65 144.98 219.153 145.849 219.692 145.487C228.853 139.352 234.592 129.101 235.011 118.099C235.036 117.454 234.029 117.454 234.006 118.099H234.007Z" fill="#0C113E"/>
</g>
<defs>
<filter id="filter0_d_10_800" x="-48.0005" y="0.922363" width="486" height="265.078" filterUnits="userSpaceOnUse" color-interpolation-filters="sRGB">
<feFlood flood-opacity="0" result="BackgroundImageFix"/>
<feColorMatrix in="SourceAlpha" type="matrix" values="0 0 0 0 0 0 0 0 0 0 0 0 0 0 0 0 0 0 127 0" result="hardAlpha"/>
<feOffset dy="4"/>
<feGaussianBlur stdDeviation="2"/>
<feComposite in2="hardAlpha" operator="out"/>
<feColorMatrix type="matrix" values="0 0 0 0 0 0 0 0 0 0 0 0 0 0 0 0 0 0 0.25 0"/>
<feBlend mode="normal" in2="BackgroundImageFix" result="effect1_dropShadow_10_800"/>
<feBlend mode="normal" in="SourceGraphic" in2="effect1_dropShadow_10_800" result="shape"/>
</filter>
</defs>
</svg>
